<svg version="1.1" viewBox="0.0 0.0 300.0 300.0" fill="none" stroke="none" stroke-linecap="square" stroke-miterlimit="10" xmlns:xlink="http://www.w3.org/1999/xlink" xmlns="http://www.w3.org/2000/svg"><clipPath id="p.0"><path d="m0 0l300.0 0l0 300.0l-300.0 0l0 -300.0z" clip-rule="nonzero"/></clipPath><g clip-path="url(#p.0)"><path fill="#000000" fill-opacity="0.0" d="m0 0l300.0 0l0 300.0l-300.0 0z" fill-rule="evenodd"/><path fill="#000000" fill-opacity="0.0" d="m11.963447 174.28719c4.979604 -1.6328735 19.947838 -4.0722046 29.877617 -9.797226c9.929779 -5.7250366 17.836891 -44.15545 29.701065 -24.552917c11.864166 19.602509 28.47499 162.84741 41.483955 142.16803c13.008972 -20.679352 24.382362 -266.22977 36.569878 -266.2442c12.1875 -0.014431953 23.48172 245.38573 36.555145 266.15762c13.073425 20.771881 29.975357 -121.92163 41.88542 -141.52628c11.910049 -19.604645 18.867828 17.990875 29.574951 23.898422c10.707092 5.9075317 28.88974 9.622345 34.667694 11.546814" fill-rule="evenodd"/><path stroke="#cc0000" stroke-width="2.0" stroke-linejoin="round" stroke-linecap="butt" d="m11.963447 174.28719c4.979604 -1.6328735 19.947838 -4.0722046 29.877617 -9.797226c9.929779 -5.7250366 17.836891 -44.15545 29.701065 -24.552917c11.864166 19.602509 28.47499 162.84741 41.483955 142.16803c13.008972 -20.679352 24.382362 -266.22977 36.569878 -266.2442c12.1875 -0.014431953 23.48172 245.38573 36.555145 266.15762c13.073425 20.771881 29.975357 -121.92163 41.88542 -141.52628c11.910049 -19.604645 18.867828 17.990875 29.574951 23.898422c10.707092 5.9075317 28.88974 9.622345 34.667694 11.546814" fill-rule="evenodd"/><path fill="#000000" fill-opacity="0.0" d="m288.0375 174.28719c-5.1796265 -1.7453461 -21.132904 -4.57901 -31.077759 -10.472107c-9.9448395 -5.893112 -16.92714 -44.601547 -28.591293 -24.88655c-11.664139 19.715012 -28.399673 163.68784 -41.393585 143.17654c-12.9938965 -20.511261 -24.382355 -266.22977 -36.569855 -266.2442c-12.187515 -0.014431953 -23.481735 245.38573 -36.55516 266.15762c-13.073425 20.771881 -29.97535 -121.92163 -41.885414 -141.52628c-11.910061 -19.604645 -18.86784 17.990875 -29.574951 23.898422c-10.707109 5.9075317 -28.889751 9.622345 -34.6677 11.546814" fill-rule="evenodd"/><path stroke="#cc0000" stroke-width="2.0" stroke-linejoin="round" stroke-linecap="butt" d="m288.0375 174.28719c-5.1796265 -1.7453461 -21.132904 -4.57901 -31.077759 -10.472107c-9.9448395 -5.893112 -16.92714 -44.601547 -28.591293 -24.88655c-11.664139 19.715012 -28.399673 163.68784 -41.393585 143.17654c-12.9938965 -20.511261 -24.382355 -266.22977 -36.569855 -266.2442c-12.187515 -0.014431953 -23.481735 245.38573 -36.55516 266.15762c-13.073425 20.771881 -29.97535 -121.92163 -41.885414 -141.52628c-11.910061 -19.604645 -18.86784 17.990875 -29.574951 23.898422c-10.707109 5.9075317 -28.889751 9.622345 -34.6677 11.546814" fill-rule="evenodd"/><path fill="#000000" fill-opacity="0.0" d="m288.0375 175.10318c-5.1796265 -1.7323914 -21.132904 -4.5450287 -31.077759 -10.394394c-9.9448395 -5.8493805 -16.92714 -44.270584 -28.591293 -24.701874c-11.664139 19.56871 -28.399673 162.47319 -41.393585 142.11412c-12.9938965 -20.35907 -24.382355 -264.25424 -36.569855 -264.2686c-12.187515 -0.014324188 -23.481735 243.56487 -36.55516 264.18265c-13.073425 20.617737 -29.97535 -121.01694 -41.885414 -140.4761c-11.910061 -19.459167 -18.86784 17.857376 -29.574951 23.721085c-10.707109 5.863693 -28.889751 9.550949 -34.6677 11.461136" fill-rule="evenodd"/><path stroke="#cc0000" stroke-width="2.0" stroke-linejoin="round" stroke-linecap="butt" d="m288.0375 175.10318c-5.1796265 -1.7323914 -21.132904 -4.5450287 -31.077759 -10.394394c-9.9448395 -5.8493805 -16.92714 -44.270584 -28.591293 -24.701874c-11.664139 19.56871 -28.399673 162.47319 -41.393585 142.11412c-12.9938965 -20.35907 -24.382355 -264.25424 -36.569855 -264.2686c-12.187515 -0.014324188 -23.481735 243.56487 -36.55516 264.18265c-13.073425 20.617737 -29.97535 -121.01694 -41.885414 -140.4761c-11.910061 -19.459167 -18.86784 17.857376 -29.574951 23.721085c-10.707109 5.863693 -28.889751 9.550949 -34.6677 11.461136" fill-rule="evenodd"/><path fill="#000000" fill-opacity="0.0" d="m288.0375 174.62212c-5.1796265 -1.7048798 -21.132904 -4.472824 -31.077759 -10.229279c-9.9448395 -5.7564545 -16.92714 -43.567284 -28.591293 -24.309448c-11.664139 19.257828 -28.399673 159.8921 -41.393585 139.85646c-12.9938965 -20.035645 -24.382355 -260.05624 -36.569855 -260.07034c-12.187515 -0.014097214 -23.481735 239.69556 -36.55516 259.98578c-13.073425 20.290222 -29.97535 -119.09444 -41.885414 -138.24448c-11.910061 -19.150032 -18.86784 17.573685 -29.574951 23.344238c-10.707109 5.7705536 -28.889751 9.399231 -34.6677 11.279068" fill-rule="evenodd"/><path stroke="#cc0000" stroke-width="2.0" stroke-linejoin="round" stroke-linecap="butt" d="m288.0375 174.62212c-5.1796265 -1.7048798 -21.132904 -4.472824 -31.077759 -10.229279c-9.9448395 -5.7564545 -16.92714 -43.567284 -28.591293 -24.309448c-11.664139 19.257828 -28.399673 159.8921 -41.393585 139.85646c-12.9938965 -20.035645 -24.382355 -260.05624 -36.569855 -260.07034c-12.187515 -0.014097214 -23.481735 239.69556 -36.55516 259.98578c-13.073425 20.290222 -29.97535 -119.09444 -41.885414 -138.24448c-11.910061 -19.150032 -18.86784 17.573685 -29.574951 23.344238c-10.707109 5.7705536 -28.889751 9.399231 -34.6677 11.279068" fill-rule="evenodd"/><path fill="#000000" fill-opacity="0.0" d="m25.083593 176.60086l51.622047 0" fill-rule="evenodd"/><path stroke="#666666" stroke-width="2.0" stroke-linejoin="round" stroke-linecap="butt" d="m25.083593 176.60086l51.622047 0" fill-rule="evenodd"/><path fill="#000000" fill-opacity="0.0" d="m87.15101 176.60086l37.07086 0" fill-rule="evenodd"/><path stroke="#666666" stroke-width="2.0" stroke-linejoin="round" stroke-linecap="butt" d="m87.15101 176.60086l37.07086 0" fill-rule="evenodd"/><path fill="#000000" fill-opacity="0.0" d="m132.30022 176.60086l35.244095 0" fill-rule="evenodd"/><path stroke="#666666" stroke-width="2.0" stroke-linejoin="round" stroke-linecap="butt" d="m132.30022 176.60086l35.244095 0" fill-rule="evenodd"/><path fill="#000000" fill-opacity="0.0" d="m176.84387 176.60086l37.07086 0" fill-rule="evenodd"/><path stroke="#666666" stroke-width="2.0" stroke-linejoin="round" stroke-linecap="butt" d="m176.84387 176.60086l37.07086 0" fill-rule="evenodd"/><path fill="#000000" fill-opacity="0.0" d="m223.21419 176.60086l51.181107 0" fill-rule="evenodd"/><path stroke="#666666" stroke-width="2.0" stroke-linejoin="round" stroke-linecap="butt" d="m223.21419 176.60086l51.181107 0" fill-rule="evenodd"/></g></svg>